<svg width="28" height="28" viewBox="0 0 28 28" fill="none" xmlns="http://www.w3.org/2000/svg">
<path fill-rule="evenodd" clip-rule="evenodd" d="M16.2511 16.3574C16.8483 15.7323 17.1837 14.8844 17.1837 14.0004C17.1837 13.1163 16.8483 12.2685 16.2511 11.6433C15.6539 11.0182 14.844 10.667 13.9995 10.667C13.1549 10.667 12.345 11.0182 11.7478 11.6433C11.1506 12.2685 10.8152 13.1163 10.8152 14.0004C10.8152 14.8844 11.1506 15.7323 11.7478 16.3574C12.345 16.9825 13.1549 17.3337 13.9995 17.3337C14.844 17.3337 15.6539 16.9825 16.2511 16.3574ZM15.1253 15.1789C15.4239 14.8663 15.5916 14.4424 15.5916 14.0004C15.5916 13.5583 15.4239 13.1344 15.1253 12.8218C14.8267 12.5093 14.4217 12.3337 13.9995 12.3337C13.5772 12.3337 13.1722 12.5093 12.8736 12.8218C12.5751 13.1344 12.4073 13.5583 12.4073 14.0004C12.4073 14.4424 12.5751 14.8663 12.8736 15.1789C13.1722 15.4914 13.5772 15.667 13.9995 15.667C14.4217 15.667 14.8267 15.4914 15.1253 15.1789Z" fill="#747474"/>
<path fill-rule="evenodd" clip-rule="evenodd" d="M23.0618 13.3263C21.7945 9.35893 18.2158 6.5 14 6.5C9.78353 6.5 6.20551 9.35893 4.93823 13.3263C4.79842 13.7639 4.79842 14.2361 4.93823 14.6737C6.20551 18.6411 9.78353 21.5 14 21.5C18.2166 21.5 21.7946 18.6411 23.0618 14.6737C23.2017 14.2361 23.2017 13.7639 23.0618 13.3263ZM6.68883 14.804C7.91092 17.7634 10.726 19.8333 14 19.8333C17.2741 19.8333 20.0892 17.7634 21.3112 14.804C21.5235 14.29 21.5235 13.71 21.3112 13.196C20.0892 10.2366 17.2741 8.16667 14 8.16667C10.726 8.16667 7.91092 10.2366 6.68883 13.196C6.47656 13.71 6.47656 14.29 6.68883 14.804Z" fill="#747474"/>
</svg>
